<svg width="39" height="57" viewBox="0 0 39 57" fill="none" xmlns="http://www.w3.org/2000/svg">
<path d="M38.281 19.121C38.281 8.578 29.7029 0 19.16 0C8.598 0 0 8.5781 0 19.121C0 28.328 6.7031 36.293 15.684 37.937V43.2104H11.1567C9.2465 43.2104 7.6997 44.7573 7.6997 46.6674C7.6997 48.5776 9.2466 50.1244 11.1567 50.1244H15.684V53.0072C15.684 54.7845 17.2309 56.2533 19.1215 56.2533H19.141C20.0981 56.2533 21.0121 55.89 21.6449 55.2416C22.2738 54.6322 22.602 53.8471 22.602 53.0072V50.1244H27.1489C29.0591 50.1244 30.6059 48.5775 30.6059 46.6674C30.6059 44.7572 29.059 43.2104 27.1489 43.2104H22.602V37.937C31.5786 36.2925 38.281 28.3276 38.281 19.121ZM19.14 31.348C12.4173 31.348 6.933 25.8675 6.933 19.141C6.933 12.3988 12.4135 6.914 19.14 6.914C25.8822 6.914 31.367 12.3945 31.367 19.141C31.367 25.8637 25.8826 31.348 19.14 31.348Z" fill="black"/>
</svg>
