<svg width="39" height="57" viewBox="0 0 39 57" fill="none" xmlns="http://www.w3.org/2000/svg">
<path d="M22.5978 18.3252V11.0869L24.9455 13.0166C25.9767 13.876 27.3908 14.0674 28.6135 13.4737C29.8362 12.8994 30.6018 11.6964 30.6018 10.3604C30.6018 9.30957 30.1448 8.33697 29.3401 7.68457L20.6878 0.559568C19.7894 -0.186522 18.512 -0.186522 17.6136 0.559568L8.9613 7.68457C8.16052 8.33301 7.6996 9.30957 7.6996 10.3604C7.6996 11.6963 8.46522 12.8995 9.6879 13.4737C10.1645 13.7041 10.6606 13.8174 11.1762 13.8174C11.9418 13.8174 12.7231 13.5518 13.352 13.0323L15.684 11.1026V18.3214C6.7035 19.9659 0 27.9308 0 37.1374C0 47.6804 8.5977 56.2584 19.16 56.2584C29.703 56.2584 38.281 47.6803 38.281 37.1374C38.281 27.9304 31.5748 19.9652 22.5978 18.3252ZM19.1408 49.3452C12.3986 49.3452 6.9138 43.8647 6.9138 37.1182C6.9138 30.3955 12.3943 24.9112 19.1408 24.9112C25.883 24.9112 31.3678 30.3917 31.3678 37.1182C31.3678 43.8643 25.8834 49.3452 19.1408 49.3452Z" fill="#F3F1DE"/>
</svg>
