<svg width="112" height="52" viewBox="0 0 112 52" fill="none" xmlns="http://www.w3.org/2000/svg">
<path d="M108.891 20.1443V13.3761C108.891 9.48682 105.873 6.32248 102.165 6.32248C101.037 6.32248 99.9756 6.61793 99.0405 7.13436C98.262 3.06999 94.8437 0 90.7564 0C86.0959 0 82.3045 3.99112 82.3045 8.89591V15.2469H29.6942V8.89591C29.6942 3.99112 25.9029 0 21.2423 0C17.1563 0 13.7379 3.07124 12.9595 7.13436C12.0244 6.61793 10.9625 6.32124 9.83466 6.32124C6.12537 6.32124 3.10745 9.48558 3.10745 13.3749V20.143C1.29819 20.8233 0 22.5712 0 24.6332V26.8876C0 28.9496 1.29819 30.6987 3.10745 31.3778V38.6251C3.10745 42.5144 6.12537 45.6788 9.83466 45.6788C10.9625 45.6788 12.0244 45.3833 12.9595 44.8656C13.7379 48.93 17.1563 52 21.2423 52C25.9029 52 29.6942 48.0089 29.6942 43.1041V36.7531H82.3045V43.1041C82.3045 48.0089 86.0959 52 90.7564 52C94.8437 52 98.262 48.93 99.0405 44.8656C99.9756 45.3821 101.037 45.6775 102.165 45.6775C105.873 45.6775 108.891 42.5132 108.891 38.6239V31.3765C110.701 30.6962 112 28.9483 112 26.8864V24.632C112 22.5725 110.701 20.8233 108.891 20.1443ZM12.8314 38.6263C12.8314 40.4624 11.4872 41.9558 9.83591 41.9558C8.18332 41.9558 6.83912 40.4624 6.83912 38.6263V13.3761C6.83912 11.5401 8.18332 10.0467 9.83591 10.0467C11.4872 10.0467 12.8314 11.5401 12.8314 13.3761V38.6263ZM25.9638 43.1066C25.9638 45.9581 23.8462 48.2783 21.2423 48.2783C18.6397 48.2783 16.5221 45.9581 16.5221 43.1066V39.3749C16.547 39.1291 16.5606 38.8796 16.5606 38.6263V13.3761C16.5606 13.1229 16.547 12.8734 16.5221 12.6276V8.89591C16.5221 6.0444 18.6397 3.72422 21.2423 3.72422C23.8462 3.72422 25.9638 6.0444 25.9638 8.89591V43.1066ZM82.3045 33.0313H29.6942V18.9712H82.3045V33.0313ZM95.4779 43.1066C95.4779 45.9581 93.3603 48.2783 90.7564 48.2783C88.1526 48.2783 86.0349 45.9581 86.0349 43.1066V8.89591C86.0349 6.0444 88.1526 3.72422 90.7564 3.72422C93.3603 3.72422 95.4779 6.0444 95.4779 8.89591V12.6189C95.4531 12.8672 95.4381 13.1192 95.4381 13.3749V38.6251C95.4381 38.8808 95.4531 39.1328 95.4779 39.3811V43.1066ZM105.161 38.6263C105.161 40.4624 103.817 41.9558 102.165 41.9558C100.513 41.9558 99.1686 40.4624 99.1686 38.6263V13.3761C99.1686 11.5401 100.513 10.0467 102.165 10.0467C103.817 10.0467 105.161 11.5401 105.161 13.3761V38.6263Z" fill="black"/>
<path d="M82.3045 33.0313H29.6942V18.9712H82.3045V33.0313Z" fill="#D9D9D9"/>
<path d="M25.9638 43.1066C25.9638 45.9581 23.8462 48.2783 21.2423 48.2783C18.6397 48.2783 16.5221 45.9581 16.5221 43.1066V39.3749C16.547 39.1291 16.5606 38.8796 16.5606 38.6263V13.3761C16.5606 13.1229 16.547 12.8734 16.5221 12.6276V8.89591C16.5221 6.0444 18.6397 3.72422 21.2423 3.72422C23.8462 3.72422 25.9638 6.0444 25.9638 8.89591V43.1066Z" fill="#D9D9D9"/>
<path d="M12.8314 38.6263C12.8314 40.4624 11.4872 41.9558 9.83591 41.9558C8.18332 41.9558 6.83912 40.4624 6.83912 38.6263V13.3761C6.83912 11.5401 8.18332 10.0467 9.83591 10.0467C11.4872 10.0467 12.8314 11.5401 12.8314 13.3761V38.6263Z" fill="#D9D9D9"/>
<path d="M95.4779 43.1066C95.4779 45.9581 93.3603 48.2783 90.7564 48.2783C88.1526 48.2783 86.0349 45.9581 86.0349 43.1066V8.89591C86.0349 6.0444 88.1526 3.72422 90.7564 3.72422C93.3603 3.72422 95.4779 6.0444 95.4779 8.89591V12.6189C95.4531 12.8672 95.4381 13.1192 95.4381 13.3749V38.6251C95.4381 38.8808 95.4531 39.1328 95.4779 39.3811V43.1066Z" fill="#D9D9D9"/>
<path d="M105.161 38.6263C105.161 40.4624 103.817 41.9558 102.165 41.9558C100.513 41.9558 99.1686 40.4624 99.1686 38.6263V13.3761C99.1686 11.5401 100.513 10.0467 102.165 10.0467C103.817 10.0467 105.161 11.5401 105.161 13.3761V38.6263Z" fill="#D9D9D9"/>
</svg>
